<svg xmlns="http://www.w3.org/2000/svg" height="200" width="200" viewBox="0 0 100 100"><path d="M82.188 53.659h-.012c-.93 0-1.717.673-1.876 1.589-1.014 5.842-6.125 25.201-28.711 28.098a1.39 1.39 0 0 1-1.008-.27 1.365 1.365 0 0 1-.541-1.099l.222-26.443c11.166 0 19.957-10.167 17.621-21.749a17.247 17.247 0 0 0-1.738-4.778V13.676c0-1.298-1.57-1.948-2.487-1.03l-7.815 7.815a18.425 18.425 0 0 0-5.738-.928h-.077c-2.695 0-5.314.323-7.829.914l-7.801-7.801c-.918-.918-2.487-.268-2.487 1.03v11.065c-10.245 6.432-16.833 18.153-15.924 31.337 1.16 16.828 14.793 30.461 31.62 31.622 19.253 1.328 35.395-13.325 36.487-32.02a1.911 1.911 0 0 0-1.906-2.021zM58.582 40.546c.858-1.024 1.45-3.167 1.45-5.653 0-2.456-.578-4.578-1.419-5.616a5.752 5.752 0 0 1 4.587 5.632 5.752 5.752 0 0 1-4.618 5.637zm-2.296-11.269c-.841 1.038-1.419 3.16-1.419 5.616 0 2.486.592 4.629 1.45 5.653a5.751 5.751 0 0 1-.031-11.269zm-20.962 5.632a5.752 5.752 0 0 1 4.587-5.632c-.841 1.038-1.419 3.16-1.419 5.616 0 2.486.592 4.629 1.45 5.653a5.751 5.751 0 0 1-4.618-5.637zm6.883 5.637c.858-1.024 1.45-3.167 1.45-5.653 0-2.456-.578-4.578-1.419-5.616a5.752 5.752 0 0 1 4.587 5.632 5.752 5.752 0 0 1-4.618 5.637zm6.946 3.083a.414.414 0 0 1-.703 0l-1.48-2.37a.415.415 0 0 1 .352-.634h2.959c.325 0 .524.358.352.634l-1.48 2.37z" fill="#ff69b4"/></svg>